<?xml version="1.0" encoding="UTF-8"?>
<!DOCTYPE svg PUBLIC "-//W3C//DTD SVG 1.1//EN" "http://www.w3.org/Graphics/SVG/1.1/DTD/svg11.dtd">
<!-- Creator: CorelDRAW -->
<svg xmlns="http://www.w3.org/2000/svg" xml:space="preserve" width="0.92in" height="0.92in" version="1.1" style="shape-rendering:geometricPrecision; text-rendering:geometricPrecision; image-rendering:optimizeQuality; fill-rule:evenodd; clip-rule:evenodd"
viewBox="0 0 266.71 266.71"
 xmlns:xlink="http://www.w3.org/1999/xlink"
 xmlns:xodm="http://www.corel.com/coreldraw/odm/2003">
 <defs>
  <style type="text/css">
   <![CDATA[
    .str0 {stroke:#373535;stroke-width:8.04;stroke-linecap:round;stroke-linejoin:round;stroke-miterlimit:2.61313}
    .fil0 {fill:#F58735}
    .fil1 {fill:#373535;fill-rule:nonzero}
   ]]>
  </style>
 </defs>
 <g id="Layer_x0020_1">
  <metadata id="CorelCorpID_0Corel-Layer"/>
  <circle class="fil0 str0" cx="133.35" cy="133.35" r="129.33"/>
  <polygon class="fil1" points="67.67,43.58 83.56,43.58 83.56,105.76 121.01,105.76 121.01,119.33 67.67,119.33 "/>
  <path id="_1" class="fil1" d="M185.38 113.65c-5.68,5.15 -12.84,7.78 -21.67,7.78 -10.94,0 -19.46,-3.47 -25.67,-10.52 -6.21,-6.94 -9.36,-16.62 -9.36,-28.83 0,-13.26 3.58,-23.36 10.63,-30.61 6.21,-6.21 13.99,-9.26 23.57,-9.26 12.73,0 21.99,4.1 27.88,12.52 3.26,4.63 5.05,9.36 5.26,14.1l-15.78 0c-1.05,-3.58 -2.42,-6.42 -4,-8.21 -2.84,-3.26 -7.15,-4.94 -12.84,-4.94 -5.68,0 -10.21,2.31 -13.57,6.94 -3.26,4.63 -4.94,11.26 -4.94,19.67 0,8.52 1.68,14.94 5.26,19.15 3.47,4.21 8,6.31 13.36,6.31 5.58,0 9.78,-1.79 12.73,-5.47 1.58,-1.89 2.95,-4.84 4,-8.73l15.68 0c-1.37,8.21 -4.94,14.94 -10.52,20.1z"/>
  <path id="_2" class="fil1" d="M100.28 224.53l-32.61 0 0 -75.75 32.61 0c4.73,0.1 8.63,0.63 11.78,1.68 5.26,1.68 9.57,4.94 12.84,9.57 2.63,3.79 4.42,7.89 5.37,12.2 1.05,4.42 1.47,8.63 1.47,12.62 0,9.99 -2,18.52 -6.1,25.57 -5.47,9.36 -13.89,14.1 -25.35,14.1zm11.78 -56.39c-2.42,-4.1 -7.26,-6.21 -14.41,-6.21l-14.62 0 0 49.45 14.62 0c7.47,0 12.62,-3.68 15.57,-11.05 1.68,-4 2.42,-8.84 2.42,-14.41 0,-7.68 -1.16,-13.68 -3.58,-17.78z"/>
  <path id="_3" class="fil1" d="M178.26 224.53l-34.3 0 0 -75.75 36.72 0c9.26,0.21 15.89,2.84 19.78,8.1 2.31,3.26 3.47,7.05 3.47,11.57 0,4.63 -1.16,8.31 -3.47,11.15 -1.37,1.58 -3.26,2.95 -5.79,4.31 3.89,1.37 6.84,3.58 8.73,6.63 2,3.05 2.95,6.73 2.95,11.15 0,4.42 -1.05,8.52 -3.37,11.99 -1.47,2.42 -3.26,4.42 -5.37,6 -2.42,1.89 -5.37,3.16 -8.63,3.79 -3.26,0.74 -6.84,1.05 -10.73,1.05zm-0.42 -33.35l-18.83 0 0 20.2 18.62 0c3.37,0 5.89,-0.42 7.78,-1.37 3.37,-1.58 5.05,-4.73 5.05,-9.47 0,-3.89 -1.68,-6.63 -4.94,-8.1 -1.79,-0.84 -4.31,-1.26 -7.68,-1.26zm7.89 -14.41c2.1,-1.26 3.05,-3.47 3.05,-6.63 0,-3.58 -1.37,-5.89 -4.1,-6.94 -2.31,-0.84 -5.37,-1.26 -9.05,-1.26l-16.62 0 0 16.73 18.62 0c3.37,0 6,-0.63 8.1,-1.89z"/>
 </g>
</svg>
